<svg xmlns="http://www.w3.org/2000/svg" width="1536" height="1024" viewBox="0 0 1536 1024">
  <rect width="1536" height="1024" fill="#101820"/>
  <rect x="120" y="300" width="1080" height="600" fill="#324a36" stroke="#ffffff" stroke-width="12"/>
  <g stroke="#ffffff" stroke-width="12">
    <path d="M300 300V900 M480 300V900 M660 300V900 M840 300V900 M1020 300V900"/>
    <path d="M120 420H1200 M120 540H1200 M120 660H1200 M120 780H1200"/>
  </g>
  <g fill="#e8f0e8">
    <circle cx="210" cy="360" r="10"/><circle cx="390" cy="360" r="10"/><circle cx="570" cy="360" r="10"/><circle cx="750" cy="360" r="10"/><circle cx="930" cy="360" r="10"/><circle cx="1110" cy="360" r="10"/>
    <circle cx="210" cy="480" r="10"/><circle cx="390" cy="480" r="10"/><circle cx="570" cy="480" r="10"/><circle cx="750" cy="480" r="10"/><circle cx="930" cy="480" r="10"/><circle cx="1110" cy="480" r="10"/>
    <circle cx="210" cy="600" r="10"/><circle cx="390" cy="600" r="10"/><circle cx="570" cy="600" r="10"/><circle cx="750" cy="600" r="10"/><circle cx="930" cy="600" r="10"/><circle cx="1110" cy="600" r="10"/>
    <circle cx="210" cy="720" r="10"/><circle cx="390" cy="720" r="10"/><circle cx="570" cy="720" r="10"/><circle cx="750" cy="720" r="10"/><circle cx="930" cy="720" r="10"/><circle cx="1110" cy="720" r="10"/>
    <circle cx="210" cy="840" r="10"/><circle cx="390" cy="840" r="10"/><circle cx="570" cy="840" r="10"/><circle cx="750" cy="840" r="10"/><circle cx="930" cy="840" r="10"/><circle cx="1110" cy="840" r="10"/>
  </g>
</svg>
